# xmcd
#
# Track frame offsets: 
#        150
#        5131
#        23389
#        40301
#        58052
#        78676
#        105271
#        120503
#        141467
#        161841
#        185736
#        207187
#
# Disc length: 2826 seconds
#
# Revision: 1
# Processed by: cddbd v1.5.2PL0 Copyright (c) Steve Scherf et al.
# Submitted via: ExactAudioCopyFreeDBPlugin 1.0
#
DISCID=a30b080c
DTITLE=Syaharani and The Queenfireworks - Buat Kamu
DYEAR=2006
DGENRE=Jazz
TTITLE0=Overture (Hello)
TTITLE1=B'main Api (Jogando Com Fogo)
TTITLE2=Delight
TTITLE3=Kemareen
TTITLE4=Tetaplah Disini
TTITLE5=Buat Kamu
TTITLE6=De' Dia
TTITLE7=Satu-Satu Lepas
TTITLE8=Lebih Baik Tidak
TTITLE9=Mungkin Indah
TTITLE10=Oh
TTITLE11=Overture (Goodbye)
EXTD=YEAR: 2006
EXTT0=
EXTT1=
EXTT2=
EXTT3=
EXTT4=
EXTT5=
EXTT6=
EXTT7=
EXTT8=
EXTT9=
EXTT10=
EXTT11=
PLAYORDER=
